<?xml version="1.0" encoding="utf-8"?>
<!-- Generator: Adobe Illustrator 16.0.0, SVG Export Plug-In . SVG Version: 6.00 Build 0)  -->
<!DOCTYPE svg PUBLIC "-//W3C//DTD SVG 1.1//EN" "http://www.w3.org/Graphics/SVG/1.1/DTD/svg11.dtd">
<svg version="1.1" id="Layer_1" xmlns="http://www.w3.org/2000/svg" xmlns:xlink="http://www.w3.org/1999/xlink" x="0px" y="0px"
	 width="41.135px" height="41.131px" viewBox="0 0 41.135 41.131" enable-background="new 0 0 41.135 41.131" xml:space="preserve">
<path fill="#FFFFFF" d="M39.396,27.522c0-6.52,1.599-11.514,1.666-11.721c0.172-0.519,0.039-1.082-0.351-1.471
	c-0.382-0.379-0.953-0.517-1.471-0.346c-0.05,0.018-5.056,1.666-11.718,1.666c-0.602,0-1.242-0.019-1.985-0.057
	c-0.037-0.727-0.056-1.381-0.056-1.986c0-6.52,1.599-11.512,1.666-11.72c0.172-0.518,0.039-1.08-0.35-1.47
	c-0.382-0.379-0.958-0.516-1.467-0.348C25.28,0.088,20.206,1.737,13.61,1.737c-6.585,0-11.67-1.649-11.719-1.665
	C1.382-0.099,0.8,0.039,0.422,0.419c-0.387,0.387-0.52,0.949-0.347,1.473C0.091,1.941,1.74,6.958,1.74,13.608
	c0,6.639-1.648,11.667-1.666,11.72c-0.172,0.521-0.039,1.083,0.349,1.47c0.38,0.379,0.939,0.521,1.471,0.348
	c0.05-0.018,5.078-1.666,11.718-1.666c0.602,0,1.242,0.019,1.986,0.057c0.037,0.73,0.055,1.385,0.055,1.986
	c0,6.639-1.647,11.668-1.664,11.719c-0.174,0.518-0.041,1.081,0.348,1.472c0.385,0.38,0.962,0.515,1.467,0.347
	c0.051-0.018,5.125-1.666,11.72-1.666c6.615,0,11.67,1.648,11.719,1.664c0.146,0.051,0.301,0.074,0.456,0.074
	c0.38,0,0.75-0.154,1.015-0.42c0.389-0.388,0.521-0.951,0.348-1.473C40.89,38.708,39.396,33.86,39.396,27.522z M4.613,13.608
	c0-4.307-0.642-7.948-1.144-10.141C5.666,3.97,9.311,4.61,13.611,4.61c4.299,0,7.945-0.641,10.142-1.144
	c-0.503,2.196-1.145,5.841-1.145,10.142c0,0.578,0.012,1.16,0.035,1.756l-0.16-0.018c-0.272-0.033-0.539-0.067-0.801-0.105
	l-0.77-0.113l-4.781-1.041l-0.101-0.029l-0.11-0.033l-0.119-0.039c-0.514-0.168-1.088-0.031-1.468,0.349
	c-0.386,0.386-0.52,0.947-0.355,1.445l0.035,0.112l0.037,0.121l0.039,0.129l0.033,0.115l1.119,5.426
	c0.035,0.26,0.071,0.526,0.104,0.797l0.018,0.164c-5.096-0.193-9.419,0.543-11.896,1.108C3.971,21.56,4.613,17.915,4.613,13.608z
	 M18.526,27.522c0-1.114-0.044-2.244-0.135-3.461c-0.215-2.736-0.636-5.04-1.013-6.685c0.719,0.165,1.467,0.315,2.234,0.45
	l0.164,0.026c1.418,0.243,2.862,0.424,4.292,0.536c1.221,0.09,2.351,0.135,3.455,0.135c4.299,0,7.945-0.643,10.142-1.145
	c-0.503,2.194-1.146,5.837-1.146,10.142s0.643,7.947,1.146,10.143c-2.195-0.503-5.843-1.145-10.142-1.145
	c-4.303,0-7.947,0.642-10.143,1.145C17.884,35.467,18.526,31.822,18.526,27.522z"/>
</svg>
