<?xml version="1.0" encoding="utf-8"?>
<!-- Generator: Adobe Illustrator 16.0.0, SVG Export Plug-In . SVG Version: 6.00 Build 0)  -->
<!DOCTYPE svg PUBLIC "-//W3C//DTD SVG 1.1//EN" "http://www.w3.org/Graphics/SVG/1.1/DTD/svg11.dtd">
<svg version="1.1" id="Layer_1" xmlns="http://www.w3.org/2000/svg" xmlns:xlink="http://www.w3.org/1999/xlink" x="0px" y="0px"
	 width="28px" height="40px" viewBox="0 0 28 40" enable-background="new 0 0 28 40" xml:space="preserve">
<path fill="#11417F" d="M25,18.726V1.424C25,0.696,24.252,0,23.524,0H4.491C3.764,0,3,0.696,3,1.424v17.302c-2,0.67-3,2.474-3,4.52
	v2.287C0,26.261,0.549,27,1.275,27h0.57l0.752,12.03C2.641,39.724,3.219,40,3.914,40h3.552C8.193,40,9,39.796,9,39.069V27h10v12.069
	C19,39.796,19.822,40,20.55,40h3.552c0.695,0,1.273-0.276,1.316-0.97L26.171,27h0.569c0.727,0,1.26-0.739,1.26-1.468v-2.287
	C28,21.199,27,19.396,25,18.726z M23.527,27L22.86,38H22V27H23.527z M6,27v11H5.156L4.488,27H6z M6,18V3h16v15H6z M25,23.245V24H3
	v-0.755C3,22.062,3.558,21,4.741,21h18.533C24.458,21,25,22.062,25,23.245z"/>
</svg>
