<?xml version="1.0" encoding="utf-8"?>
<!-- Generator: Adobe Illustrator 16.0.0, SVG Export Plug-In . SVG Version: 6.00 Build 0)  -->
<!DOCTYPE svg PUBLIC "-//W3C//DTD SVG 1.1//EN" "http://www.w3.org/Graphics/SVG/1.1/DTD/svg11.dtd">
<svg version="1.1" id="Layer_1" xmlns="http://www.w3.org/2000/svg" xmlns:xlink="http://www.w3.org/1999/xlink" x="0px" y="0px"
	 width="68px" height="36.82px" viewBox="0 0 68 36.82" enable-background="new 0 0 68 36.82" xml:space="preserve">
<path fill="#11417F" d="M64.318,14.763l-5.539-2.499L53.91,4.07C52.502,1.801,50.005,0,47.333,0H26.688
	c-2.413,0-4.683,1.57-6.163,3.496l-6.249,8.421L4.172,14.884C1.484,15.618,0,18.153,0,20.94v3.994C0,28.339,2.037,31,5.441,31h0.862
	c1.092,4,5.372,6.666,9.553,5.574C18.587,35.856,20.713,33,21.431,31H44.92c1.092,4,5.372,6.666,9.554,5.574
	C57.202,35.856,59.328,33,60.047,31h1.652C65.104,31,68,28.339,68,24.935V20.38C68,17.952,66.516,15.769,64.318,14.763z
	 M13.875,34.057c-2.73,0-4.942-2.212-4.942-4.942c0-2.729,2.212-4.941,4.942-4.941c2.729,0,4.941,2.213,4.941,4.941
	C18.816,31.845,16.604,34.057,13.875,34.057z M52.477,34.057c-2.73,0-4.942-2.212-4.942-4.942c0-2.729,2.212-4.941,4.942-4.941
	c2.729,0,4.942,2.213,4.942,4.941C57.419,31.845,55.205,34.057,52.477,34.057z M65,24.935C65,26.744,63.51,28,61.699,28h-1.45
	c-0.489-5-4.368-7.37-8.648-6.882C47.979,21.535,45.121,24,44.719,28H21.632c-0.488-5-4.367-7.37-8.647-6.882
	C9.363,21.535,6.504,24,6.103,28H5.441C3.631,28,3,26.759,3,24.935V20.94c0-1.479,0.561-2.787,1.996-3.175l10.725-2.988
	c0.303-0.086,0.463-0.259,0.664-0.517l6.481-8.964C23.786,4.09,25.166,3,26.688,3h20.645c1.681,0,3.247,1.234,4.123,2.67
	l5.085,8.304c0.145,0.245,0.359,0.524,0.618,0.639l5.903,2.733C64.24,17.877,65,19.102,65,20.395V24.935z"/>
</svg>
