<?xml version="1.0" encoding="utf-8"?>
<!-- Generator: Adobe Illustrator 16.0.0, SVG Export Plug-In . SVG Version: 6.00 Build 0)  -->
<!DOCTYPE svg PUBLIC "-//W3C//DTD SVG 1.1//EN" "http://www.w3.org/Graphics/SVG/1.1/DTD/svg11.dtd">
<svg version="1.1" id="Layer_1" xmlns="http://www.w3.org/2000/svg" xmlns:xlink="http://www.w3.org/1999/xlink" x="0px" y="0px"
	 width="52.732px" height="40.166px" viewBox="0 0 52.732 40.166" enable-background="new 0 0 52.732 40.166" xml:space="preserve">
<path fill="#FFFFFF" d="M46.688,18.461c-9.342,0-13.771-4.25-18.673-8.75C22.816,4.938,17.539,0,6.778,0C3.229,0,0,2.889,0,6.438
	c0,2.213,0.732,4.008,2.732,4.951v28.777h4v-3h43v3h3V24.897C52.733,21.349,50.24,18.461,46.688,18.461z M16.107,18.166
	c-0.968,0-2.374,0.516-3.374,0.936V6.438c0-0.717,0.174-1.418-0.059-2.09c5.528,1.385,9.201,4.476,12.927,7.9
	c2.318,2.127,4.846,3.918,7.732,5.918H16.107z M12.733,24.897c0-1.539,1.834-3.731,3.374-3.731h30.976
	c1.541,0,2.65,2.192,2.65,3.731v2.269h-37V24.897z M49.733,31.166v2h-43v-2H49.733z M6.409,3.645c1.54,0,2.324,1.253,2.324,2.793
	v20.728h-2V8.896c0-0.131,0.124-0.244-0.003-0.275L5.658,8.338c-1.132-0.272-1.863-0.895-1.863-1.9
	C3.795,4.897,4.868,3.645,6.409,3.645z"/>
</svg>
