<?xml version="1.0" encoding="utf-8"?>
<!-- Generator: Adobe Illustrator 16.0.0, SVG Export Plug-In . SVG Version: 6.00 Build 0)  -->
<!DOCTYPE svg PUBLIC "-//W3C//DTD SVG 1.1//EN" "http://www.w3.org/Graphics/SVG/1.1/DTD/svg11.dtd">
<svg version="1.1" id="Layer_1" xmlns="http://www.w3.org/2000/svg" xmlns:xlink="http://www.w3.org/1999/xlink" x="0px" y="0px"
	 width="63px" height="41px" viewBox="0 0 63 41" enable-background="new 0 0 63 41" xml:space="preserve">
<g>
	<path fill="#11417F" d="M63,5.5C63,2.462,60.537,0,57.5,0h-52C2.462,0,0,2.462,0,5.5v30C0,38.537,2.462,41,5.5,41h52
		c3.037,0,5.5-2.463,5.5-5.5V5.5z M60,35.5c0,1.381-1.119,2.5-2.5,2.5h-52C4.119,38,3,36.881,3,35.5v-30C3,4.119,4.119,3,5.5,3h52
		C58.881,3,60,4.119,60,5.5V35.5z"/>
	<circle fill="#11417F" cx="13.336" cy="9.997" r="1.5"/>
	<circle fill="#11417F" cx="13.336" cy="31.997" r="1.5"/>
	<circle fill="#11417F" cx="49.336" cy="9.997" r="1.5"/>
	<circle fill="#11417F" cx="49.336" cy="31.997" r="1.5"/>
	<circle fill="#11417F" cx="31.336" cy="9.997" r="1.5"/>
	<circle fill="#11417F" cx="31.336" cy="31.997" r="1.5"/>
	<circle fill="#11417F" cx="19.336" cy="20.997" r="1.5"/>
	<circle fill="#11417F" cx="42.336" cy="20.997" r="1.5"/>
</g>
</svg>
