<?xml version="1.0" encoding="utf-8"?>
<!-- Generator: Adobe Illustrator 16.0.0, SVG Export Plug-In . SVG Version: 6.00 Build 0)  -->
<!DOCTYPE svg PUBLIC "-//W3C//DTD SVG 1.1//EN" "http://www.w3.org/Graphics/SVG/1.1/DTD/svg11.dtd">
<svg version="1.1" id="Layer_1" xmlns="http://www.w3.org/2000/svg" xmlns:xlink="http://www.w3.org/1999/xlink" x="0px" y="0px"
	 width="53.646px" height="41px" viewBox="0 0 53.646 41" enable-background="new 0 0 53.646 41" xml:space="preserve">
<path fill="#FFFFFF" d="M51.983,13.045c-1.174-1.172-2.521-1.462-3.089-1.584c-0.64-0.145-1.309-0.193-1.972-0.148
	C43.772,4.428,35.93,0,26.825,0C18.233,0,10.62,4.455,7.306,11.387c-0.854-0.133-1.724-0.104-2.547,0.084
	c-0.575,0.125-1.924,0.416-3.095,1.588c-0.208,0.209-2.025,2.127-1.602,4.838c0.412,2.687,2.729,4.365,4.706,4.789
	c0.592,0.129,1.219,0.142,1.834,0.041c0.147,0.707,0.297,2.795-0.814,8.313c-0.049,0.265,0.214,0.542,0.295,0.801
	c0.845,2.703,2.736,4.15,4.736,4.527v2.989c0,0.906,0.594,1.644,1.5,1.644s1.5-0.735,1.5-1.644V35.5h26v3.857
	c0,0.906,0.56,1.643,1.466,1.643s1.534-0.736,1.534-1.643v-2.986c2-0.363,4.403-1.813,5.24-4.532
	c0.081-0.26-0.027-0.536-0.078-0.806c-1.115-5.545-1.028-7.613-0.88-8.307c0.271,0.045,0.515,0.066,0.787,0.066
	c0.345,0,0.669-0.036,0.99-0.107c1.979-0.425,4.288-2.104,4.7-4.788C53.974,15.381,52.467,13.561,51.983,13.045z M44.566,31.243
	c-0.626,1.751-1.302,1.829-1.791,1.89l-31.831,0.004c-0.551-0.063-1.232-0.145-1.849-1.893c1.45-7.417,1.162-10.693-1.02-11.674
	c-0.583-0.264-1.222-0.248-1.858-0.133c-0.253,0.064-0.521,0.07-0.755,0.02c-0.76-0.166-1.961-0.854-2.147-2.068
	c-0.149-0.946,0.425-1.736,0.679-2.032l0.009-0.01c0.488-0.478,1.095-0.604,1.47-0.684c0.506-0.119,1.044-0.12,1.558,0.001
	c0.644,0.146,1.051,0.428,1.707,0.881c0.751,0.529,1.384,1.16,1.873,1.869c0.381,0.566,0.7,1.209,0.949,1.912
	c0.941,2.643,1.045,5.629,1.045,6.986c0,0.905,0.736,1.188,1.643,1.188h25.136c0.906,0,1.644-0.281,1.644-1.188
	c0-1.689,0.136-4.679,1.045-7.228c0.249-0.701,0.568-1.231,0.942-1.788c0.531-0.753,1.162-1.327,1.879-1.821
	c0.604-0.424,1.041-0.702,1.688-0.852c0.525-0.109,1.064-0.097,1.588,0.015c0.368,0.076,0.983,0.212,1.472,0.7
	c0.01,0.01,0.877,0.923,0.709,2.045c-0.189,1.225-1.414,1.919-2.144,2.068c-0.25,0.051-0.49,0.049-0.781-0.022
	c-0.186-0.038-0.467-0.095-0.784-0.095c-0.376,0-0.724,0.077-1.052,0.233C43.403,20.55,43.115,23.826,44.566,31.243z M43.024,12.864
	c-1.066,0.747-1.974,1.654-2.696,2.698c-0.545,0.8-0.995,1.378-1.337,2.341c-0.668,1.844-1.07,3.596-1.197,6.596H15.856
	c-0.094-2-0.385-4.321-1.197-6.592c-0.341-0.967-0.791-1.703-1.341-2.509c-0.747-1.066-1.654-1.893-2.688-2.61
	c-0.098-0.07-0.194-0.1-0.295-0.168c2.773-5.623,9.338-9.354,16.488-9.354c7.643,0,14.24,3.555,16.959,9.078
	C43.514,12.51,43.258,12.69,43.024,12.864z"/>
</svg>
