<?xml version="1.0" encoding="utf-8"?>
<!-- Generator: Adobe Illustrator 16.0.0, SVG Export Plug-In . SVG Version: 6.00 Build 0)  -->
<!DOCTYPE svg PUBLIC "-//W3C//DTD SVG 1.1//EN" "http://www.w3.org/Graphics/SVG/1.1/DTD/svg11.dtd">
<svg version="1.1" id="Layer_1" xmlns="http://www.w3.org/2000/svg" xmlns:xlink="http://www.w3.org/1999/xlink" x="0px" y="0px"
	 width="47.102px" height="38px" viewBox="0 0 47.102 38" enable-background="new 0 0 47.102 38" xml:space="preserve">
<g>
	<path fill="#FFFFFF" d="M36.122,3.643C32.355,1.26,28.009,0,23.551,0s-8.805,1.26-12.574,3.645C5.131,7.381,0,19.171,0,24.314
		C0,30.08,2.865,34.041,8.54,36.1l2.136,0.653c0.592,0.155,1.206,0.29,1.849,0.415l2.204,0.355C17.425,37.84,20.167,38,22.88,38
		l0.665-0.002L24.222,38h0.001c2.712,0,5.455-0.16,8.173-0.48l2.199-0.354c0.626-0.122,1.239-0.257,1.851-0.418l2.143-0.656
		c5.648-2.05,8.515-6.011,8.515-11.775C47.102,19.171,41.971,7.381,36.122,3.643z M43.86,24.314c0,4.35-1.94,7.112-6.111,8.701
		c-0.62,0.239-5.329,1.271-6.092,1.36c-2.492,0.254-5.021,0.383-7.518,0.383l-0.589-0.002l-0.589,0.002
		c-2.495,0-5.024-0.129-7.509-0.383c-0.771-0.09-5.479-1.121-6.103-1.36c-4.169-1.589-6.109-4.353-6.109-8.701
		c0-4.367,4.686-14.879,9.481-17.935c3.243-2.056,6.987-3.143,10.827-3.143c3.841,0,7.584,1.087,10.826,3.143
		C39.175,9.436,43.86,19.947,43.86,24.314z"/>
	<path fill="#FFFFFF" d="M8.666,25.357c-0.616-0.609-1.684-0.604-2.292,0.012c-0.306,0.308-0.472,0.715-0.47,1.148
		c0.004,0.433,0.174,0.838,0.481,1.143c2.591,2.564,8.045,3.758,17.164,3.758c9.12,0,14.574-1.193,17.164-3.758
		c0.309-0.305,0.479-0.71,0.48-1.143c0.002-0.435-0.163-0.842-0.469-1.148c-0.607-0.615-1.676-0.62-2.291-0.012
		c-1.893,1.871-6.9,2.819-14.886,2.819S10.558,27.229,8.666,25.357z"/>
</g>
</svg>
