<?xml version="1.0" encoding="utf-8"?>
<!-- Generator: Adobe Illustrator 16.0.0, SVG Export Plug-In . SVG Version: 6.00 Build 0)  -->
<!DOCTYPE svg PUBLIC "-//W3C//DTD SVG 1.1//EN" "http://www.w3.org/Graphics/SVG/1.1/DTD/svg11.dtd">
<svg version="1.1" id="Layer_1" xmlns="http://www.w3.org/2000/svg" xmlns:xlink="http://www.w3.org/1999/xlink" x="0px" y="0px"
	 width="76.094px" height="40.979px" viewBox="0 0 76.094 40.979" enable-background="new 0 0 76.094 40.979" xml:space="preserve">
<path fill="#11417F" d="M68.958,8.375c-0.962,0-1.928,0.21-2.833,0.614V8.875c0-5.779-3.055-8.833-8.833-8.833H18.958
	c-5.779,0-8.833,3.054-8.833,8.833v0.116C9.237,8.599,8.273,8.388,7.292,8.375c-3.952,0-7.167,3.215-7.167,7.167v13.333
	c0,3.952,3.215,7.167,7.167,7.167h2.833v2.834c0,1.194,0.972,2.166,2.167,2.166c1.194,0,2.166-0.972,2.166-2.166v-2.834h47.334
	v2.834c0,1.194,0.972,2.166,2.166,2.166c1.195,0,2.167-0.972,2.167-2.166v-2.834h2.816c3.961,0,7.184-3.215,7.184-7.167V15.542
	C76.125,11.591,72.91,8.375,68.958,8.375z M18.958,4.376h38.334c3.406,0,4.499,1.093,4.499,4.499v11.167H14.458V8.875
	C14.458,5.469,15.551,4.376,18.958,4.376z M66.125,24.376v-8.834c0-1.562,1.271-2.833,2.833-2.833s2.834,1.271,2.834,2.833v13.333
	c0,1.563-1.278,2.833-2.851,2.833H7.292c-1.563,0-2.834-1.271-2.834-2.833V15.542c0-1.562,1.271-2.833,2.834-2.833
	c1.562,0,2.833,1.271,2.833,2.833v8.834H66.125z"/>
</svg>
