<?xml version="1.0" encoding="utf-8"?>
<!-- Generator: Adobe Illustrator 16.0.0, SVG Export Plug-In . SVG Version: 6.00 Build 0)  -->
<!DOCTYPE svg PUBLIC "-//W3C//DTD SVG 1.1//EN" "http://www.w3.org/Graphics/SVG/1.1/DTD/svg11.dtd">
<svg version="1.1" id="Layer_1" xmlns="http://www.w3.org/2000/svg" xmlns:xlink="http://www.w3.org/1999/xlink" x="0px" y="0px"
	 width="36px" height="40.36px" viewBox="0 0 36 40.36" enable-background="new 0 0 36 40.36" xml:space="preserve">
<path fill="#11417F" d="M35.838,4.36H12.51C11.845,1.36,9.173,0,6.343,0C2.955,0,0,3.082,0,6.469V34.75
	c0,3.388,3.154,5.61,6.541,5.61h29.297c0.157,0,0.162,0.406,0.162,0.249V5.297C36,5.141,35.995,4.36,35.838,4.36z M9.426,33.295
	H7.997v-1.429C8.608,32.178,9.113,32.684,9.426,33.295z M5,31.865v3.495h28v2H6.541c-1.781,0-3.274-1.14-3.274-2.921
	C3.267,33.211,5,31.865,5,31.865z M3,29.528v-1.665c1-0.676,2.33-1.033,3.5-1.033S9,27.188,10,27.863v1.666
	c-1-0.605-2.345-0.922-3.5-0.922C5.344,28.607,4,28.924,3,29.528z M6.541,5.014c-1.136,0-2.225,0.307-3.182,0.891
	c0.268-1.514,1.593-2.668,3.182-2.668c1.59,0,2.915,1.154,3.184,2.668C8.767,5.32,7.678,5.014,6.541,5.014z M6.5,7.924
	c1.782,0,3.5,1.451,3.5,3.232v13.404c-1-0.42-2.398-0.641-3.5-0.641S4,24.141,3,24.561V11.156C3,9.375,4.718,7.924,6.5,7.924z
	 M33,12.36v20H13v-20H33z M33,7.36v2H13v-2H33z"/>
</svg>
