<?xml version="1.0" encoding="utf-8"?>
<!-- Generator: Adobe Illustrator 16.0.0, SVG Export Plug-In . SVG Version: 6.00 Build 0)  -->
<!DOCTYPE svg PUBLIC "-//W3C//DTD SVG 1.1//EN" "http://www.w3.org/Graphics/SVG/1.1/DTD/svg11.dtd">
<svg version="1.1" id="Layer_1" xmlns="http://www.w3.org/2000/svg" xmlns:xlink="http://www.w3.org/1999/xlink" x="0px" y="0px"
	 width="62.468px" height="41.13px" viewBox="0 0 62.468 41.13" enable-background="new 0 0 62.468 41.13" xml:space="preserve">
<path fill="#11417F" d="M59.801,20.563c0-10.035,2.465-17.744,2.569-18.066c0.227-0.686,0.051-1.43-0.46-1.941
	c-0.495-0.498-1.27-0.682-1.94-0.463c-0.079,0.025-8.144,2.571-28.736,2.571c-20.524,0-28.657-2.546-28.732-2.569
	c-0.666-0.224-1.447-0.04-1.944,0.46C0.045,1.066-0.13,1.811,0.099,2.501c0.264,0.817,2.567,8.267,2.567,18.062
	c0,9.776-2.305,17.245-2.568,18.067c-0.228,0.686-0.052,1.43,0.459,1.941c0.498,0.498,1.287,0.68,1.935,0.465
	c0.331-0.105,8.336-2.572,28.742-2.572c20.551,0,28.655,2.545,28.733,2.57c0.195,0.064,0.396,0.097,0.6,0.097
	c0.5,0,0.99-0.203,1.343-0.557c0.513-0.513,0.688-1.257,0.456-1.954C62.103,37.797,59.801,30.299,59.801,20.563z M6.468,20.563
	c0-6.953-1.097-12.779-1.885-16.069c4.112,0.81,12.481,1.97,26.65,1.97c14.168,0,22.537-1.16,26.65-1.97
	C57.096,7.783,56,13.609,56,20.563c0,6.955,1.097,12.781,1.885,16.071c-4.113-0.81-12.482-1.971-26.65-1.971
	c-14.169,0-22.538,1.161-26.65,1.971C5.372,33.343,6.468,27.517,6.468,20.563z"/>
</svg>
